<svg width="39" height="33" viewBox="0 0 39 33" fill="none" xmlns="http://www.w3.org/2000/svg">
<path d="M19.0889 0.398438C29.6318 0.398438 38.1779 7.62851 38.1779 16.5479C38.1779 25.4672 29.6318 32.6973 19.0889 32.6973C8.54609 32.6973 0 25.4672 0 16.5479C0 7.62851 8.54609 0.398438 19.0889 0.398438ZM19.0889 30.9404C28.4337 30.9404 36.1012 24.4536 36.1012 16.5479C36.1012 8.64207 28.4337 2.15528 19.0889 2.15528C9.74414 2.15528 2.07662 8.64207 2.07662 16.5479C2.07662 24.4536 9.74414 30.9404 19.0889 30.9404Z" fill="white"/>
<path d="M18.6894 7.29102L29.6315 16.5481L18.6894 25.8052L17.2517 24.5213L26.5964 16.5481L17.2517 8.57486L18.6894 7.29102Z" fill="white"/>
<path d="M28.1141 17.4932L8.94531 17.4932V15.6016L28.1141 15.6016V17.4932Z" fill="white"/>
</svg>
