<svg width="39" height="33" viewBox="0 0 39 33" fill="none" xmlns="http://www.w3.org/2000/svg">
<path d="M19.0889 32.6973C8.54609 32.6973 0 25.4672 0 16.5479C0 7.62851 8.54609 0.398438 19.0889 0.398438C29.6318 0.398438 38.1779 7.62851 38.1779 16.5479C38.1779 25.4672 29.6318 32.6973 19.0889 32.6973ZM19.0889 2.15528C9.74414 2.15528 2.07662 8.64207 2.07662 16.5479C2.07662 24.4536 9.74414 30.9404 19.0889 30.9404C28.4337 30.9404 36.1012 24.4536 36.1012 16.5479C36.1012 8.64207 28.4337 2.15528 19.0889 2.15528Z" fill="white"/>
<path d="M19.4885 25.8047L8.54633 16.5476L19.4885 7.29053L20.9262 8.57437L11.5814 16.5476L20.9262 24.5208L19.4885 25.8047Z" fill="white"/>
<path d="M10.0637 15.6025L29.2325 15.6025V17.4937H10.0637V15.6025Z" fill="white"/>
</svg>
